<svg xmlns="http://www.w3.org/2000/svg" width="1280" height="800" viewBox="0 0 1280 800"><defs><linearGradient id="bg" x1="0" y1="0" x2="1" y2="1"><stop offset="0" stop-color="#0d1117"/><stop offset=".58" stop-color="#101827"/><stop offset="1" stop-color="#071913"/></linearGradient><linearGradient id="accent" x1="0" y1="0" x2="1" y2="1"><stop offset="0" stop-color="#19346d"/><stop offset=".55" stop-color="#2f6fed"/><stop offset="1" stop-color="#16a37b"/></linearGradient><linearGradient id="panel" x1="0" y1="0" x2="0" y2="1"><stop offset="0" stop-color="#242936"/><stop offset="1" stop-color="#171b22"/></linearGradient><filter id="shadow" x="-30%" y="-30%" width="160%" height="180%"><feDropShadow dx="0" dy="22" stdDeviation="26" flood-color="#000814" flood-opacity=".44"/></filter><filter id="glow" x="-20%" y="-20%" width="140%" height="140%"><feDropShadow dx="0" dy="8" stdDeviation="14" flood-color="#2f6fed" flood-opacity=".25"/></filter></defs><rect width="1280" height="800" fill="url(#bg)"/><circle cx="204.8" cy="96.0" r="272.0" fill="#2f6fed" opacity=".13"/><circle cx="1113.6" cy="736.0" r="224.0" fill="#16a37b" opacity=".10"/><g transform="translate(76 58)" filter="url(#glow)"><rect width="78" height="78" rx="17.16" fill="url(#accent)"/><rect x="17.16" y="17.16" width="35.1" height="25.740000000000002" rx="6.24" fill="#d8e4ff" opacity=".34"/><rect x="21.840000000000003" y="23.4" width="35.1" height="25.740000000000002" rx="6.24" fill="#f3f7ff" opacity=".58"/><rect x="26.520000000000003" y="29.64" width="35.88" height="25.740000000000002" rx="6.24" fill="#f8fbff"/><path d="M 35.1 42.1 H 51.5" fill="none" stroke="#2f6fed" stroke-width="5.5" stroke-linecap="round"/><path d="M 46.8 35.1 L 54.6 42.1 L 46.8 49.1" fill="none" stroke="#2f6fed" stroke-width="5.5" stroke-linecap="round" stroke-linejoin="round"/><path d="M 24.2 57.7 H 41.3" fill="none" stroke="#9df6d6" stroke-width="4.7" stroke-linecap="round"/></g><text x="176" y="105" font-family="system-ui, -apple-system, BlinkMacSystemFont, sans-serif" font-size="38" font-weight="820" fill="#f6f8fc" text-anchor="start">Vrishn</text><text x="76" y="180" font-family="system-ui, -apple-system, BlinkMacSystemFont, sans-serif" font-size="46" font-weight="820" fill="#f6f8fc" text-anchor="start">Tune the popup to match your workflow.</text><text x="76" y="230" font-family="system-ui, -apple-system, BlinkMacSystemFont, sans-serif" font-size="24" font-weight="540" fill="#a8b2c3" text-anchor="start">Resize the window, change accent color, hide pinned tabs, or limit results to the current window.</text><g transform="translate(340 260)" filter="url(#shadow)"><rect width="600" height="530" rx="18" fill="#222228" stroke="#3b414e" stroke-width="2"/><text x="32" y="54" font-family="system-ui, -apple-system, BlinkMacSystemFont, sans-serif" font-size="26" font-weight="800" fill="#f6f8fc" text-anchor="start">Popup window</text><path d="M32 72 H568" stroke="#414756"/><text x="32" y="116" font-family="system-ui, -apple-system, BlinkMacSystemFont, sans-serif" font-size="21" font-weight="650" fill="#f6f8fc" text-anchor="start">Width</text><text x="514" y="116" font-family="system-ui, -apple-system, BlinkMacSystemFont, sans-serif" font-size="19" font-weight="550" fill="#aeb8c8" text-anchor="start">560px</text><rect x="168" y="102" width="300" height="8" rx="4" fill="#dfe5ee"/><rect x="168" y="102" width="210" height="8" rx="4" fill="#2f6fed"/><circle cx="378" cy="106" r="13" fill="#2f6fed"/><text x="32" y="160" font-family="system-ui, -apple-system, BlinkMacSystemFont, sans-serif" font-size="21" font-weight="650" fill="#f6f8fc" text-anchor="start">Height</text><text x="514" y="160" font-family="system-ui, -apple-system, BlinkMacSystemFont, sans-serif" font-size="19" font-weight="550" fill="#aeb8c8" text-anchor="start">420px</text><rect x="168" y="146" width="300" height="8" rx="4" fill="#dfe5ee"/><rect x="168" y="146" width="210" height="8" rx="4" fill="#2f6fed"/><circle cx="378" cy="150" r="13" fill="#2f6fed"/><text x="32" y="228" font-family="system-ui, -apple-system, BlinkMacSystemFont, sans-serif" font-size="26" font-weight="800" fill="#f6f8fc" text-anchor="start">Appearance</text><path d="M32 246 H568" stroke="#414756"/><text x="32" y="292" font-family="system-ui, -apple-system, BlinkMacSystemFont, sans-serif" font-size="21" font-weight="650" fill="#f6f8fc" text-anchor="start">Accent color</text><rect x="168" y="266" width="72" height="46" rx="8" fill="#2f3442" stroke="#485368"/><rect x="180" y="278" width="48" height="22" rx="3" fill="#2f6fed"/><text x="480" y="294" font-family="system-ui, -apple-system, BlinkMacSystemFont, sans-serif" font-size="19" font-weight="560" fill="#aeb8c8" text-anchor="start">#2F6FED</text><text x="32" y="362" font-family="system-ui, -apple-system, BlinkMacSystemFont, sans-serif" font-size="26" font-weight="800" fill="#f6f8fc" text-anchor="start">Tab list</text><path d="M32 380 H568" stroke="#414756"/><rect x="38" y="406" width="18" height="18" rx="3" fill="#1d2028" stroke="#697386"/><text x="72" y="424" font-family="system-ui, -apple-system, BlinkMacSystemFont, sans-serif" font-size="20" font-weight="650" fill="#f6f8fc" text-anchor="start">Limit results to the current window</text><rect x="38" y="449" width="18" height="18" rx="3" fill="#1d2028" stroke="#697386"/><text x="72" y="467" font-family="system-ui, -apple-system, BlinkMacSystemFont, sans-serif" font-size="20" font-weight="650" fill="#f6f8fc" text-anchor="start">Hide pinned tabs</text><rect x="38" y="492" width="18" height="18" rx="3" fill="#1d2028" stroke="#697386"/><text x="72" y="510" font-family="system-ui, -apple-system, BlinkMacSystemFont, sans-serif" font-size="20" font-weight="650" fill="#f6f8fc" text-anchor="start">Restore the last search query</text></g><g transform="translate(980 430)" filter="url(#glow)"><rect width="130" height="130" rx="28.6" fill="url(#accent)"/><rect x="28.6" y="28.6" width="58.5" height="42.9" rx="10.4" fill="#d8e4ff" opacity=".34"/><rect x="36.400000000000006" y="39.0" width="58.5" height="42.9" rx="10.4" fill="#f3f7ff" opacity=".58"/><rect x="44.2" y="49.4" width="59.800000000000004" height="42.9" rx="10.4" fill="#f8fbff"/><path d="M 58.5 70.2 H 85.8" fill="none" stroke="#2f6fed" stroke-width="9.1" stroke-linecap="round"/><path d="M 78.0 58.5 L 91.0 70.2 L 78.0 81.9" fill="none" stroke="#2f6fed" stroke-width="9.1" stroke-linecap="round" stroke-linejoin="round"/><path d="M 40.3 96.2 H 68.9" fill="none" stroke="#9df6d6" stroke-width="7.8" stroke-linecap="round"/></g></svg>